<svg width="780" height="805" viewBox="0 0 780 805" fill="none" xmlns="http://www.w3.org/2000/svg">
<g clip-path="url(#clip0_503_181)">
<path d="M402.5 710.21C572.444 710.21 710.21 572.444 710.21 402.5C710.21 232.556 572.444 94.79 402.5 94.79C232.556 94.79 94.79 232.556 94.79 402.5C94.79 572.444 232.556 710.21 402.5 710.21Z" fill="#6c63ff"/>
<path d="M742 543.43H760.9C759.72 546.41 758.503 549.383 757.25 552.35C722.676 634.088 660.903 701.356 582.4 742.753C503.898 784.151 413.496 797.13 326.517 779.491C239.539 761.852 161.335 714.681 105.161 645.972C48.9874 577.263 18.2998 491.244 18.2998 402.495C18.2998 313.746 48.9874 227.727 105.161 159.018C161.335 90.3093 239.539 43.1378 326.517 25.499C413.496 7.86027 503.898 20.8395 582.4 62.2367C660.903 103.634 722.676 170.902 757.25 252.64C758.503 255.6 759.72 258.573 760.9 261.56H742C741.72 260.86 741.43 260.16 741.13 259.46C708.13 181.438 649.165 117.226 574.232 77.7099C499.299 38.1935 413.007 25.8033 329.982 42.6394C246.958 59.4755 172.309 104.502 118.688 170.087C65.068 235.672 35.7753 317.781 35.7753 402.495C35.7753 487.209 65.068 569.318 118.688 634.903C172.309 700.488 246.958 745.515 329.982 762.351C413.007 779.187 499.299 766.797 574.232 727.28C649.165 687.764 708.13 623.552 741.13 545.53C741.43 544.843 741.72 544.143 742 543.43Z" fill="white"/>
<path d="M742 543.43C741.72 544.13 741.43 544.83 741.13 545.53C708.129 623.552 649.165 687.764 574.232 727.28C499.299 766.797 413.006 779.187 329.982 762.351C246.957 745.515 172.308 700.488 118.688 634.903C65.0677 569.318 35.775 487.209 35.775 402.495C35.775 317.781 65.0677 235.672 118.688 170.087C172.308 104.502 246.957 59.4755 329.982 42.6394C413.006 25.8033 499.299 38.1935 574.232 77.7099C649.165 117.226 708.129 181.438 741.13 259.46C741.43 260.16 741.72 260.86 742 261.56H779.63C722.5 108.78 575.21 0 402.5 0C179.96 0 -0.410279 180.62 -0.000278966 403.27C0.409721 625.69 182.58 806.35 405 805C576.63 804 722.79 695.49 779.63 543.43H742Z" fill="#6c63ff"/>
<path d="M433.04 449.03C430.873 479.03 419.8 502.647 399.82 519.88C379.84 537.113 353.506 545.73 320.82 545.73C285.073 545.73 256.956 533.697 236.47 509.63C215.983 485.563 205.746 452.52 205.76 410.5V393.5C205.76 366.687 210.48 343.07 219.92 322.65C229.36 302.23 242.86 286.563 260.42 275.65C277.966 264.73 298.36 259.27 321.6 259.27C353.766 259.27 379.68 267.887 399.34 285.12C419 302.353 430.36 326.543 433.42 357.69H375.98C374.573 339.69 369.573 326.64 360.98 318.54C352.386 310.44 339.26 306.387 321.6 306.38C302.446 306.38 288.113 313.24 278.6 326.96C269.086 340.68 264.206 361.967 263.96 390.82V411.88C263.96 442.013 268.523 464.033 277.65 477.94C286.776 491.847 301.17 498.803 320.83 498.81C338.57 498.81 351.813 494.757 360.56 486.65C369.306 478.543 374.306 466.003 375.56 449.03H433.04Z" fill="white"/>
<path d="M599.24 541.9H543.91V328.59L477.85 349.08V304.08L593.31 262.72H599.24V541.9Z" fill="white"/>
</g>
<defs>
<clipPath id="clip0_503_181">
<rect width="779.63" height="805" fill="white"/>
</clipPath>
</defs>
</svg>
