<svg xmlns="http://www.w3.org/2000/svg" width="40" height="40" viewBox="0 0 40 40"><path d="M11.154 19.894 5.33 14.21l-1.612 1.65 2.656 2.594H1.942a1.442 1.442.0 100 2.884h4.433L3.72 23.927l1.61 1.653 5.823-5.685zm28.352.0-5.823-5.685-1.612 1.65 2.656 2.594h-4.433a1.442 1.442.0 100 2.884h4.433l-2.655 2.591 1.611 1.651 5.823-5.685z" fill="#7c3aed"/><rect width="23.07" height="2.884" x="7.911" y="7" rx="1.442" fill="#7c3aed"/><rect width="23.07" height="2.884" x="7.911" y="30.07" rx="1.442" fill="#7c3aed"/><path d="M13.679 14.21c.796.0 1.442.645 1.442 1.441v8.651a1.442 1.442.0 11-2.884.0v-8.65c0-.797.646-1.443 1.442-1.443zm5.767.0c.797.0 1.442.645 1.442 1.441v8.651a1.442 1.442.0 11-2.884.0v-8.65c0-.797.646-1.443 1.442-1.443zm5.768.0c.796.0 1.442.645 1.442 1.441v8.651a1.442 1.442.0 11-2.884.0v-8.65c0-.797.645-1.443 1.442-1.443z" fill="#7c3aed"/></svg>